<svg xmlns="http://www.w3.org/2000/svg" version="1.1" xmlns:xlink="http://www.w3.org/1999/xlink" xmlns:svgjs="http://svgjs.dev/svgjs" width="1920" height="1080" preserveAspectRatio="none" viewBox="0 0 1920 1080"><g mask="url(&quot;#SvgjsMask1008&quot;)" fill="none"><rect width="1920" height="1080" x="0" y="0" fill="rgba(68, 105, 166, 1)"></rect><path d="M 0,98 C 192,127.6 576,231.6 960,246 C 1344,260.4 1728,185.2 1920,170L1920 1080L0 1080z" fill="rgba(55, 93, 153, 1)"></path><path d="M 0,383 C 192,435.4 576,624.8 960,645 C 1344,665.2 1728,516.2 1920,484L1920 1080L0 1080z" fill="rgba(43, 81, 140, 1)"></path><path d="M 0,1021 C 192,986 576,840.4 960,846 C 1344,851.6 1728,1008.4 1920,1049L1920 1080L0 1080z" fill="rgba(33, 69, 128, 1)"></path></g><defs><mask id="SvgjsMask1008"><rect width="1920" height="1080" fill="#ffffff"></rect></mask></defs></svg>