<svg xmlns="http://www.w3.org/2000/svg" version="1.1" xmlns:xlink="http://www.w3.org/1999/xlink" xmlns:svgjs="http://svgjs.dev/svgjs" width="360" height="800" preserveAspectRatio="none" viewBox="0 0 360 800"><g mask="url(&quot;#SvgjsMask1000&quot;)" fill="none"><rect width="360" height="800" x="0" y="0" fill="rgba(68, 105, 166, 1)"></rect><path d="M 0,202 C 36,167.8 108,39.2 180,31 C 252,22.8 324,135 360,161L360 800L0 800z" fill="rgba(55, 93, 153, 1)"></path><path d="M 0,314 C 36,357 108,536 180,529 C 252,522 324,329 360,279L360 800L0 800z" fill="rgba(43, 81, 140, 1)"></path><path d="M 0,674 C 36,655 108,566 180,579 C 252,592 324,707 360,739L360 800L0 800z" fill="rgba(33, 69, 128, 1)"></path></g><defs><mask id="SvgjsMask1000"><rect width="360" height="800" fill="#ffffff"></rect></mask></defs></svg>