<svg xmlns="http://www.w3.org/2000/svg" version="1.1" xmlns:xlink="http://www.w3.org/1999/xlink" xmlns:svgjs="http://svgjs.dev/svgjs" width="1920" height="1080" preserveAspectRatio="none" viewBox="0 0 1920 1080"><g mask="url(&quot;#SvgjsMask1118&quot;)" fill="none"><rect width="1920" height="1080" x="0" y="0" fill="rgba(115, 172, 231, 1)"></rect><path d="M 0,249 C 128,214.4 384,73.4 640,76 C 896,78.6 1024,262.2 1280,262 C 1536,261.8 1792,112.4 1920,75L1920 1080L0 1080z" fill="rgba(71, 184, 203, 1)"></path><path d="M 0,332 C 128,358 384,474.2 640,462 C 896,449.8 1024,281 1280,271 C 1536,261 1792,383.8 1920,412L1920 1080L0 1080z" fill="rgba(110, 192, 214, 1)"></path><path d="M 0,775 C 128,731.6 384,560.2 640,558 C 896,555.8 1024,743 1280,764 C 1536,785 1792,683.2 1920,663L1920 1080L0 1080z" fill="rgba(123, 188, 255, 1)"></path><path d="M 0,947 C 192,925 576,813.4 960,837 C 1344,860.6 1728,1019.4 1920,1065L1920 1080L0 1080z" fill="rgba(103, 209, 243, 1)"></path></g><defs><mask id="SvgjsMask1118"><rect width="1920" height="1080" fill="#ffffff"></rect></mask></defs></svg>